<mxfile host="Electron" modified="2023-09-14T22:26:09.972Z" agent="Mozilla/5.0 (X11; Linux x86_64) AppleWebKit/537.36 (KHTML, like Gecko) draw.io/21.7.5 Chrome/114.0.5735.289 Electron/25.8.1 Safari/537.36" etag="mpP-yfJcsQHTVwpuwrK4" version="21.7.5" type="device">
  <diagram name="RCConnection" id="7e0a89b8-554c-2b80-1dc8-d5c74ca68de4">
    <mxGraphModel dx="884" dy="663" grid="1" gridSize="10" guides="1" tooltips="1" connect="1" arrows="1" fold="1" page="1" pageScale="1" pageWidth="1100" pageHeight="850" background="none" math="0" shadow="0">
      <root>
        <mxCell id="0" />
        <mxCell id="1" parent="0" />
        <mxCell id="6H2GAKV8zu3qXIsFDud2-33" value="" style="rounded=0;whiteSpace=wrap;html=1;fillColor=#ffe6cc;strokeColor=#d79b00;" parent="1" vertex="1">
          <mxGeometry x="266" y="110" width="484" height="420" as="geometry" />
        </mxCell>
        <mxCell id="6H2GAKV8zu3qXIsFDud2-1" value="" style="pointerEvents=1;verticalLabelPosition=bottom;shadow=0;dashed=0;align=center;html=1;verticalAlign=top;shape=mxgraph.electrical.resistors.resistor_2;direction=south;" parent="1" vertex="1">
          <mxGeometry x="302" y="550" width="20" height="100" as="geometry" />
        </mxCell>
        <mxCell id="6H2GAKV8zu3qXIsFDud2-3" value="" style="verticalLabelPosition=bottom;shadow=0;dashed=0;align=center;fillColor=default;html=1;verticalAlign=top;strokeWidth=1;shape=mxgraph.electrical.miscellaneous.monocell_battery;rounded=1;comic=0;labelBackgroundColor=none;fontFamily=Verdana;fontSize=12;flipH=1;direction=south;" parent="1" vertex="1">
          <mxGeometry x="282" y="210" width="60" height="100" as="geometry" />
        </mxCell>
        <mxCell id="6H2GAKV8zu3qXIsFDud2-11" value="" style="line;strokeWidth=2;direction=south;html=1;" parent="1" vertex="1">
          <mxGeometry x="307" y="460" width="10" height="90" as="geometry" />
        </mxCell>
        <mxCell id="6H2GAKV8zu3qXIsFDud2-12" value="" style="pointerEvents=1;verticalLabelPosition=bottom;shadow=0;dashed=0;align=center;html=1;verticalAlign=top;shape=mxgraph.electrical.signal_sources.signal_ground;direction=west;" parent="1" vertex="1">
          <mxGeometry x="289.5" y="140" width="45" height="30" as="geometry" />
        </mxCell>
        <mxCell id="6H2GAKV8zu3qXIsFDud2-13" value="" style="line;strokeWidth=2;direction=south;html=1;" parent="1" vertex="1">
          <mxGeometry x="307" y="170" width="10" height="40" as="geometry" />
        </mxCell>
        <mxCell id="6H2GAKV8zu3qXIsFDud2-15" value="" style="line;strokeWidth=2;html=1;" parent="1" vertex="1">
          <mxGeometry x="312" y="475" width="48" height="10" as="geometry" />
        </mxCell>
        <mxCell id="6H2GAKV8zu3qXIsFDud2-17" value="" style="pointerEvents=1;verticalLabelPosition=bottom;shadow=0;dashed=0;align=center;html=1;verticalAlign=top;shape=mxgraph.electrical.signal_sources.signal_ground;direction=east;" parent="1" vertex="1">
          <mxGeometry x="289.5" y="690" width="45" height="30" as="geometry" />
        </mxCell>
        <mxCell id="6H2GAKV8zu3qXIsFDud2-18" value="" style="line;strokeWidth=2;direction=north;html=1;" parent="1" vertex="1">
          <mxGeometry x="307" y="650" width="10" height="40" as="geometry" />
        </mxCell>
        <mxCell id="6H2GAKV8zu3qXIsFDud2-19" value="" style="pointerEvents=1;verticalLabelPosition=bottom;shadow=0;dashed=0;align=center;html=1;verticalAlign=top;shape=mxgraph.electrical.resistors.resistor_2;" parent="1" vertex="1">
          <mxGeometry x="360" y="470" width="100" height="20" as="geometry" />
        </mxCell>
        <mxCell id="6H2GAKV8zu3qXIsFDud2-20" value="" style="line;strokeWidth=2;html=1;" parent="1" vertex="1">
          <mxGeometry x="460" y="475" width="40" height="10" as="geometry" />
        </mxCell>
        <mxCell id="6H2GAKV8zu3qXIsFDud2-21" value="" style="pointerEvents=1;verticalLabelPosition=bottom;shadow=0;dashed=0;align=center;html=1;verticalAlign=top;shape=mxgraph.electrical.capacitors.capacitor_1;" parent="1" vertex="1">
          <mxGeometry x="360" y="310" width="100" height="60" as="geometry" />
        </mxCell>
        <mxCell id="6H2GAKV8zu3qXIsFDud2-22" value="" style="line;strokeWidth=2;html=1;" parent="1" vertex="1">
          <mxGeometry x="312" y="335" width="48" height="10" as="geometry" />
        </mxCell>
        <mxCell id="6H2GAKV8zu3qXIsFDud2-23" value="" style="line;strokeWidth=2;html=1;" parent="1" vertex="1">
          <mxGeometry x="460" y="335" width="40" height="10" as="geometry" />
        </mxCell>
        <mxCell id="6H2GAKV8zu3qXIsFDud2-24" value="" style="line;strokeWidth=2;direction=south;html=1;" parent="1" vertex="1">
          <mxGeometry x="496" y="339" width="10" height="141" as="geometry" />
        </mxCell>
        <mxCell id="6H2GAKV8zu3qXIsFDud2-25" value="Rprot" style="text;html=1;strokeColor=none;fillColor=none;align=center;verticalAlign=middle;whiteSpace=wrap;rounded=0;" parent="1" vertex="1">
          <mxGeometry x="252" y="580" width="60" height="30" as="geometry" />
        </mxCell>
        <mxCell id="6H2GAKV8zu3qXIsFDud2-26" value="R" style="text;html=1;strokeColor=none;fillColor=none;align=center;verticalAlign=middle;whiteSpace=wrap;rounded=0;" parent="1" vertex="1">
          <mxGeometry x="380" y="490" width="60" height="30" as="geometry" />
        </mxCell>
        <mxCell id="6H2GAKV8zu3qXIsFDud2-27" value="5V" style="text;html=1;strokeColor=none;fillColor=none;align=center;verticalAlign=middle;whiteSpace=wrap;rounded=0;" parent="1" vertex="1">
          <mxGeometry x="334.5" y="245" width="60" height="30" as="geometry" />
        </mxCell>
        <mxCell id="6H2GAKV8zu3qXIsFDud2-28" value="C" style="text;html=1;strokeColor=none;fillColor=none;align=center;verticalAlign=middle;whiteSpace=wrap;rounded=0;" parent="1" vertex="1">
          <mxGeometry x="380" y="280" width="60" height="30" as="geometry" />
        </mxCell>
        <mxCell id="6H2GAKV8zu3qXIsFDud2-30" value="" style="line;strokeWidth=2;html=1;" parent="1" vertex="1">
          <mxGeometry x="500" y="475" width="30" height="10" as="geometry" />
        </mxCell>
        <mxCell id="6H2GAKV8zu3qXIsFDud2-31" value="" style="ellipse;shape=doubleEllipse;whiteSpace=wrap;html=1;aspect=fixed;" parent="1" vertex="1">
          <mxGeometry x="530" y="475" width="10" height="10" as="geometry" />
        </mxCell>
        <mxCell id="6H2GAKV8zu3qXIsFDud2-32" value="GPIO" style="text;html=1;strokeColor=none;fillColor=none;align=center;verticalAlign=middle;whiteSpace=wrap;rounded=0;" parent="1" vertex="1">
          <mxGeometry x="530" y="465" width="60" height="30" as="geometry" />
        </mxCell>
        <mxCell id="6H2GAKV8zu3qXIsFDud2-34" value="Circuito RC" style="text;html=1;strokeColor=none;fillColor=none;align=center;verticalAlign=middle;whiteSpace=wrap;rounded=0;" parent="1" vertex="1">
          <mxGeometry x="670" y="120" width="70" height="30" as="geometry" />
        </mxCell>
        <mxCell id="6H2GAKV8zu3qXIsFDud2-36" value="" style="line;strokeWidth=2;direction=south;html=1;" parent="1" vertex="1">
          <mxGeometry x="307" y="310" width="10" height="30" as="geometry" />
        </mxCell>
        <mxCell id="6H2GAKV8zu3qXIsFDud2-37" value="" style="html=1;shape=mxgraph.electrical.electro-mechanical.switchDisconnector;aspect=fixed;elSwitchState=off;direction=south;" parent="1" vertex="1">
          <mxGeometry x="309" y="359" width="20" height="75" as="geometry" />
        </mxCell>
        <mxCell id="6H2GAKV8zu3qXIsFDud2-38" value="" style="line;strokeWidth=2;direction=south;html=1;" parent="1" vertex="1">
          <mxGeometry x="307" y="339" width="10" height="20" as="geometry" />
        </mxCell>
        <mxCell id="6H2GAKV8zu3qXIsFDud2-39" value="" style="line;strokeWidth=2;direction=south;html=1;" parent="1" vertex="1">
          <mxGeometry x="307" y="434" width="10" height="26" as="geometry" />
        </mxCell>
      </root>
    </mxGraphModel>
  </diagram>
</mxfile>
